extratorrent.com 
http://extratorrent.com/torrent/2330215/

*General Informations*

Title: Room In Rome 2010 720p BRRip H.264 AAC-TheFalcon007 (Kingdom-Release).mp4
Year: 2010
Runtime: 1:47:26
Language: English | Spanish | Italian | Russian | Basque
Release Date: 17/11/2010

*File Informations*

Video: 3200 Kbps VBR H.264/AVC 24.000 FPS
Maximum video bitrate: 23.7 Mbps
Audio 01: AAC 48000Hz 448 kbPs 6 Channels VBR
Audio 02: AAC 48000Hz 128 kbPs 2 Channels VBR
Overall Bitrate: 3,789 Kbps VBR
Resolution: 1280 x 544
Aspect Ratio: 2.35 : 1
Subtitles: English + Other Languages
File Size: 2.84 GB (3,053,388,885 bytes)

*Movie Informations*

Genre: Drama | Romance
IMDB Rating: 5.8/10 (585 votes)
IMDB URL: http://www.imdb.com/title/tt1263750/
Country: UK
Release Date: 7 May 2010 (Spain)
Director: Julio Medem

Cast:

Natasha Yarovenko  ...   Natasha
Elena Anaya  ... Alba
Enrico Lo Verso  ... Max
Najwa Nimri  ... Edurne

Awards: -
Plot Keywords: Hotel Room | Hotel | Room | Flag Raising | Singing Waiter | Girly | Attraction | Hot | Oral  
MPAA: UK:18 / SingaporeBanned)
Company: Morena Films

Plot: A hotel room in the center of Rome serves as the setting for two young and recently acquainted women to have a physical adventure that touches their very souls.

*CODEC Informations*

General
Complete name                    : Room In Rome 2010 720p BRRip H.264 AAC-TheFalcon007 (Kingdom-Release).mp4
Format                           : MPEG-4
Format profile                   : Base Media / Version 2
Codec ID                         : mp42
File size                        : 2.84 GiB
Duration                         : 1h 47mn
Overall bit rate                 : 3 789 Kbps
Encoded date                     : UTC 2010-11-15 15:17:50
Tagged date                      : UTC 2010-11-15 15:17:50
Writing application              : Yamb 2.1.0.0
Copyright                        : TheFalcon007

Video
ID                               : 1
Format                           : AVC
Format/Info                      : Advanced Video Codec
Format profile                   : High@L4.1
Format settings, CABAC           : Yes
Format settings, ReFrames        : 12 frames
Codec ID                         : avc1
Codec ID/Info                    : Advanced Video Coding
Duration                         : 1h 47mn
Bit rate mode                    : Variable
Bit rate                         : 3 200 Kbps
Maximum bit rate                 : 23.7 Mbps
Width                            : 1 280 pixels
Height                           : 544 pixels
Display aspect ratio             : 2.35:1
Frame rate mode                  : Constant
Frame rate                       : 24.000 fps
Color space                      : YUV
Chroma subsampling               : 4:2:0
Bit depth                        : 8 bits
Scan type                        : Progressive
Bits/(Pixel*Frame)               : 0.191
Stream size                      : 2.41 GiB (85%)
Writing library                  : x264 core 98 r1649 c54c47d
Encoding settings                : X
Encoded date                     : UTC 2010-11-15 03:22:56
Tagged date                      : UTC 2010-11-15 15:19:52

Audio #1
ID                               : 2
Format                           : AAC
Format/Info                      : Advanced Audio Codec
Format version                   : Version 4
Format profile                   : LC
Format settings, SBR             : No
Codec ID                         : 40
Duration                         : 1h 47mn
Bit rate mode                    : Variable
Bit rate                         : 447 Kbps
Maximum bit rate                 : 599 Kbps
Channel(s)                       : 6 channels
Channel positions                : Front: L C R, Side: L R, LFE
Sampling rate                    : 48.0 KHz
Stream size                      : 343 MiB (12%)
Encoded date                     : UTC 2010-11-15 15:19:19
Tagged date                      : UTC 2010-11-15 15:19:52

Audio #2
ID                               : 3
Format                           : AAC
Format/Info                      : Advanced Audio Codec
Format version                   : Version 4
Format profile                   : LC
Format settings, SBR             : No
Codec ID                         : 40
Duration                         : 1h 47mn
Bit rate mode                    : Variable
Bit rate                         : 128 Kbps
Maximum bit rate                 : 149 Kbps
Channel(s)                       : 2 channels
Channel positions                : Front: L R
Sampling rate                    : 48.0 KHz
Stream size                      : 98.4 MiB (3%)
Encoded date                     : UTC 2010-11-15 15:19:49
Tagged date                      : UTC 2010-11-15 15:19:52

Torrent HASH: 5D1A4807 33AACC7E 428966F8 3EB98491 A639A07F

Compatible with PS3 and XBox360!

NOTE: Glad to see ya back around KB. Can't wait for ya to get back in action. Continuing the legacy of great quality, KiNGDOM releases... TAKE IT or LEAVE IT.
I am looking for some new sources cams,direct audio,dvd or vhs screeners, Dedicated Servers, TV Cappers, syncers or any thing else you can provide Contact us @ kingdom@hush.ai
Greets: KingBen, tiato, DiNGiE, Mazza, Richie, SecretMyth, BeLLBoY, IceBane, Deaftone and all of Kingdom & UKB, STG, IMAGiNE, The GRiM, KK, paulx1, HDLiTE, Ho's, Wrath, MnM-RG, ReleaseLounge RG and all others I Respect, you know who y'all are R.I.P. SecretMyth.
Thanks to SceneUnderground
Thanks SaM for help!